<mxfile host="app.diagrams.net" modified="2023-06-28T11:01:08.166Z" agent="Mozilla/5.0 (Windows NT 10.0; Win64; x64) AppleWebKit/537.36 (KHTML, like Gecko) Chrome/114.0.0.0 Safari/537.36" etag="Yj3DzEoT1-Uu25PN7ZYi" version="21.5.1" type="device">
  <diagram name="Страница 1" id="qJyD1IVkB_qfYlZ3L4AM">
    <mxGraphModel dx="3434" dy="1285" grid="1" gridSize="10" guides="1" tooltips="1" connect="1" arrows="1" fold="1" page="1" pageScale="1" pageWidth="827" pageHeight="1169" math="0" shadow="0">
      <root>
        <mxCell id="0" />
        <mxCell id="1" parent="0" />
        <mxCell id="bZppWB_cgH8agmTEyihN-1" value="Страница с авторизацией пользователя" style="rounded=0;whiteSpace=wrap;html=1;" parent="1" vertex="1">
          <mxGeometry x="140" y="180" width="120" height="60" as="geometry" />
        </mxCell>
        <mxCell id="bZppWB_cgH8agmTEyihN-2" value="Страница с добавлением новой продукции" style="rounded=0;whiteSpace=wrap;html=1;" parent="1" vertex="1">
          <mxGeometry x="-20" y="180" width="120" height="60" as="geometry" />
        </mxCell>
        <mxCell id="bZppWB_cgH8agmTEyihN-3" value="Страница списания продукции" style="rounded=0;whiteSpace=wrap;html=1;" parent="1" vertex="1">
          <mxGeometry x="60" y="620" width="120" height="60" as="geometry" />
        </mxCell>
        <mxCell id="bZppWB_cgH8agmTEyihN-4" value="Страница изменения количества продукции" style="rounded=0;whiteSpace=wrap;html=1;" parent="1" vertex="1">
          <mxGeometry x="60" y="520" width="120" height="60" as="geometry" />
        </mxCell>
        <mxCell id="bZppWB_cgH8agmTEyihN-5" value="Страница с продукцией" style="rounded=0;whiteSpace=wrap;html=1;" parent="1" vertex="1">
          <mxGeometry x="140" y="410" width="120" height="60" as="geometry" />
        </mxCell>
        <mxCell id="bZppWB_cgH8agmTEyihN-6" value="Страница с секциями" style="rounded=0;whiteSpace=wrap;html=1;" parent="1" vertex="1">
          <mxGeometry x="140" y="300" width="120" height="60" as="geometry" />
        </mxCell>
        <mxCell id="bZppWB_cgH8agmTEyihN-7" value="Страница добавления новой секции" style="rounded=0;whiteSpace=wrap;html=1;" parent="1" vertex="1">
          <mxGeometry x="1060" y="140" width="120" height="60" as="geometry" />
        </mxCell>
        <mxCell id="bZppWB_cgH8agmTEyihN-8" value="Страница добавления новых сотрудников" style="rounded=0;whiteSpace=wrap;html=1;" parent="1" vertex="1">
          <mxGeometry x="900" y="140" width="120" height="60" as="geometry" />
        </mxCell>
        <mxCell id="bZppWB_cgH8agmTEyihN-9" value="Страница с секциями" style="rounded=0;whiteSpace=wrap;html=1;" parent="1" vertex="1">
          <mxGeometry x="580" y="250" width="120" height="60" as="geometry" />
        </mxCell>
        <mxCell id="bZppWB_cgH8agmTEyihN-10" value="Страница с формой редактирования секции" style="rounded=0;whiteSpace=wrap;html=1;" parent="1" vertex="1">
          <mxGeometry x="580" y="360" width="120" height="60" as="geometry" />
        </mxCell>
        <mxCell id="bZppWB_cgH8agmTEyihN-11" value="Страница &quot;Сотрудники&quot;" style="rounded=0;whiteSpace=wrap;html=1;" parent="1" vertex="1">
          <mxGeometry x="740" y="140" width="120" height="60" as="geometry" />
        </mxCell>
        <mxCell id="bZppWB_cgH8agmTEyihN-14" value="" style="endArrow=none;html=1;rounded=0;" parent="1" edge="1">
          <mxGeometry width="50" height="50" relative="1" as="geometry">
            <mxPoint x="40" y="120" as="sourcePoint" />
            <mxPoint x="200" y="120" as="targetPoint" />
          </mxGeometry>
        </mxCell>
        <mxCell id="bZppWB_cgH8agmTEyihN-15" value="" style="endArrow=none;html=1;rounded=0;exitX=0.5;exitY=0;exitDx=0;exitDy=0;" parent="1" edge="1">
          <mxGeometry width="50" height="50" relative="1" as="geometry">
            <mxPoint x="199.5" y="410" as="sourcePoint" />
            <mxPoint x="199.5" y="360" as="targetPoint" />
          </mxGeometry>
        </mxCell>
        <mxCell id="bZppWB_cgH8agmTEyihN-16" value="" style="endArrow=none;html=1;rounded=0;" parent="1" edge="1">
          <mxGeometry width="50" height="50" relative="1" as="geometry">
            <mxPoint x="200" y="550" as="sourcePoint" />
            <mxPoint x="199.5" y="470" as="targetPoint" />
          </mxGeometry>
        </mxCell>
        <mxCell id="bZppWB_cgH8agmTEyihN-17" value="" style="endArrow=none;html=1;rounded=0;exitX=1;exitY=0.5;exitDx=0;exitDy=0;" parent="1" source="bZppWB_cgH8agmTEyihN-4" edge="1">
          <mxGeometry width="50" height="50" relative="1" as="geometry">
            <mxPoint x="230" y="620" as="sourcePoint" />
            <mxPoint x="200" y="550" as="targetPoint" />
          </mxGeometry>
        </mxCell>
        <mxCell id="bZppWB_cgH8agmTEyihN-19" value="" style="endArrow=none;html=1;rounded=0;" parent="1" edge="1">
          <mxGeometry width="50" height="50" relative="1" as="geometry">
            <mxPoint x="40" y="180" as="sourcePoint" />
            <mxPoint x="40" y="120" as="targetPoint" />
          </mxGeometry>
        </mxCell>
        <mxCell id="bZppWB_cgH8agmTEyihN-20" value="" style="endArrow=none;html=1;rounded=0;" parent="1" edge="1">
          <mxGeometry width="50" height="50" relative="1" as="geometry">
            <mxPoint x="200" y="650" as="sourcePoint" />
            <mxPoint x="199.5" y="550" as="targetPoint" />
          </mxGeometry>
        </mxCell>
        <mxCell id="bZppWB_cgH8agmTEyihN-21" value="" style="endArrow=none;html=1;rounded=0;exitX=1;exitY=0.5;exitDx=0;exitDy=0;" parent="1" edge="1">
          <mxGeometry width="50" height="50" relative="1" as="geometry">
            <mxPoint x="180" y="649.76" as="sourcePoint" />
            <mxPoint x="200" y="649.76" as="targetPoint" />
          </mxGeometry>
        </mxCell>
        <mxCell id="bZppWB_cgH8agmTEyihN-23" value="" style="endArrow=none;html=1;rounded=0;exitX=0.5;exitY=0;exitDx=0;exitDy=0;" parent="1" edge="1">
          <mxGeometry width="50" height="50" relative="1" as="geometry">
            <mxPoint x="639.5699999999999" y="250" as="sourcePoint" />
            <mxPoint x="639.5699999999999" y="200" as="targetPoint" />
          </mxGeometry>
        </mxCell>
        <mxCell id="bZppWB_cgH8agmTEyihN-29" value="Шапка сайта для сортироващика" style="rounded=0;whiteSpace=wrap;html=1;" parent="1" vertex="1">
          <mxGeometry x="140" y="30" width="120" height="60" as="geometry" />
        </mxCell>
        <mxCell id="bZppWB_cgH8agmTEyihN-33" value="Шапка сайта для администратора" style="rounded=0;whiteSpace=wrap;html=1;" parent="1" vertex="1">
          <mxGeometry x="580" y="30" width="120" height="60" as="geometry" />
        </mxCell>
        <mxCell id="bZppWB_cgH8agmTEyihN-34" value="" style="endArrow=none;html=1;rounded=0;exitX=0.5;exitY=0;exitDx=0;exitDy=0;" parent="1" edge="1" source="bZppWB_cgH8agmTEyihN-1">
          <mxGeometry width="50" height="50" relative="1" as="geometry">
            <mxPoint x="199.46999999999997" y="140" as="sourcePoint" />
            <mxPoint x="199.46999999999997" y="90" as="targetPoint" />
          </mxGeometry>
        </mxCell>
        <mxCell id="bZppWB_cgH8agmTEyihN-35" value="" style="endArrow=none;html=1;rounded=0;exitX=0.5;exitY=0;exitDx=0;exitDy=0;" parent="1" edge="1">
          <mxGeometry width="50" height="50" relative="1" as="geometry">
            <mxPoint x="639.5699999999999" y="140" as="sourcePoint" />
            <mxPoint x="639.5699999999999" y="90" as="targetPoint" />
          </mxGeometry>
        </mxCell>
        <mxCell id="bZppWB_cgH8agmTEyihN-36" value="" style="endArrow=none;html=1;rounded=0;" parent="1" edge="1">
          <mxGeometry width="50" height="50" relative="1" as="geometry">
            <mxPoint x="40" y="330" as="sourcePoint" />
            <mxPoint x="40" y="240" as="targetPoint" />
          </mxGeometry>
        </mxCell>
        <mxCell id="bZppWB_cgH8agmTEyihN-38" value="" style="endArrow=none;html=1;rounded=0;exitX=0.5;exitY=0;exitDx=0;exitDy=0;" parent="1" edge="1">
          <mxGeometry width="50" height="50" relative="1" as="geometry">
            <mxPoint x="639.1299999999999" y="360" as="sourcePoint" />
            <mxPoint x="639.1299999999999" y="310" as="targetPoint" />
          </mxGeometry>
        </mxCell>
        <mxCell id="oNu87VnfktEAPIrRcmoS-4" value="" style="endArrow=none;html=1;rounded=0;" edge="1" parent="1">
          <mxGeometry width="50" height="50" relative="1" as="geometry">
            <mxPoint x="200" y="119.99999999999999" as="sourcePoint" />
            <mxPoint x="360" y="119.99999999999999" as="targetPoint" />
          </mxGeometry>
        </mxCell>
        <mxCell id="oNu87VnfktEAPIrRcmoS-5" value="" style="endArrow=none;html=1;rounded=0;" edge="1" parent="1">
          <mxGeometry width="50" height="50" relative="1" as="geometry">
            <mxPoint x="360" y="330" as="sourcePoint" />
            <mxPoint x="360" y="120" as="targetPoint" />
          </mxGeometry>
        </mxCell>
        <mxCell id="oNu87VnfktEAPIrRcmoS-7" value="" style="endArrow=classic;html=1;rounded=0;exitX=0.5;exitY=1;exitDx=0;exitDy=0;entryX=0.5;entryY=0;entryDx=0;entryDy=0;" edge="1" parent="1" source="bZppWB_cgH8agmTEyihN-1" target="bZppWB_cgH8agmTEyihN-6">
          <mxGeometry width="50" height="50" relative="1" as="geometry">
            <mxPoint x="170" y="250" as="sourcePoint" />
            <mxPoint x="220" y="200" as="targetPoint" />
          </mxGeometry>
        </mxCell>
        <mxCell id="oNu87VnfktEAPIrRcmoS-8" value="" style="endArrow=classic;html=1;rounded=0;entryX=1;entryY=0.5;entryDx=0;entryDy=0;" edge="1" parent="1" target="bZppWB_cgH8agmTEyihN-6">
          <mxGeometry width="50" height="50" relative="1" as="geometry">
            <mxPoint x="360" y="330" as="sourcePoint" />
            <mxPoint x="210" y="310" as="targetPoint" />
          </mxGeometry>
        </mxCell>
        <mxCell id="oNu87VnfktEAPIrRcmoS-9" value="" style="endArrow=classic;html=1;rounded=0;entryX=0;entryY=0.5;entryDx=0;entryDy=0;" edge="1" parent="1" target="bZppWB_cgH8agmTEyihN-6">
          <mxGeometry width="50" height="50" relative="1" as="geometry">
            <mxPoint x="40" y="330" as="sourcePoint" />
            <mxPoint x="270" y="340" as="targetPoint" />
          </mxGeometry>
        </mxCell>
        <mxCell id="oNu87VnfktEAPIrRcmoS-15" value="Страница с авторизацией пользователя" style="rounded=0;whiteSpace=wrap;html=1;" vertex="1" parent="1">
          <mxGeometry x="580" y="140" width="120" height="60" as="geometry" />
        </mxCell>
        <mxCell id="oNu87VnfktEAPIrRcmoS-16" value="" style="endArrow=none;html=1;rounded=0;" edge="1" parent="1">
          <mxGeometry width="50" height="50" relative="1" as="geometry">
            <mxPoint x="1120" y="110" as="sourcePoint" />
            <mxPoint x="640" y="110" as="targetPoint" />
          </mxGeometry>
        </mxCell>
        <mxCell id="oNu87VnfktEAPIrRcmoS-17" value="" style="endArrow=none;html=1;rounded=0;exitX=0.5;exitY=0;exitDx=0;exitDy=0;" edge="1" parent="1">
          <mxGeometry width="50" height="50" relative="1" as="geometry">
            <mxPoint x="799.75" y="140" as="sourcePoint" />
            <mxPoint x="800" y="110" as="targetPoint" />
          </mxGeometry>
        </mxCell>
        <mxCell id="oNu87VnfktEAPIrRcmoS-18" value="" style="endArrow=none;html=1;rounded=0;exitX=0.5;exitY=0;exitDx=0;exitDy=0;" edge="1" parent="1">
          <mxGeometry width="50" height="50" relative="1" as="geometry">
            <mxPoint x="959.75" y="140" as="sourcePoint" />
            <mxPoint x="960" y="110" as="targetPoint" />
          </mxGeometry>
        </mxCell>
        <mxCell id="oNu87VnfktEAPIrRcmoS-19" value="" style="endArrow=none;html=1;rounded=0;entryX=0.5;entryY=0;entryDx=0;entryDy=0;" edge="1" parent="1" target="bZppWB_cgH8agmTEyihN-7">
          <mxGeometry width="50" height="50" relative="1" as="geometry">
            <mxPoint x="1120" y="110" as="sourcePoint" />
            <mxPoint x="970" y="120" as="targetPoint" />
          </mxGeometry>
        </mxCell>
        <mxCell id="oNu87VnfktEAPIrRcmoS-20" value="Страница с остатками продукции" style="rounded=0;whiteSpace=wrap;html=1;" vertex="1" parent="1">
          <mxGeometry x="980" y="30" width="120" height="60" as="geometry" />
        </mxCell>
        <mxCell id="oNu87VnfktEAPIrRcmoS-22" value="Страница с сохранением учета распределенной продукции" style="rounded=0;whiteSpace=wrap;html=1;" vertex="1" parent="1">
          <mxGeometry x="300" y="410" width="120" height="60" as="geometry" />
        </mxCell>
        <mxCell id="oNu87VnfktEAPIrRcmoS-24" value="" style="endArrow=none;html=1;rounded=0;" edge="1" parent="1">
          <mxGeometry width="50" height="50" relative="1" as="geometry">
            <mxPoint x="300" y="440" as="sourcePoint" />
            <mxPoint x="260" y="439.64" as="targetPoint" />
          </mxGeometry>
        </mxCell>
        <mxCell id="oNu87VnfktEAPIrRcmoS-26" value="Страница с сохранением учета остатков продукции" style="rounded=0;whiteSpace=wrap;html=1;" vertex="1" parent="1">
          <mxGeometry x="1140" y="30" width="120" height="60" as="geometry" />
        </mxCell>
        <mxCell id="oNu87VnfktEAPIrRcmoS-27" value="" style="endArrow=none;html=1;rounded=0;exitX=0;exitY=0.5;exitDx=0;exitDy=0;entryX=1;entryY=0.5;entryDx=0;entryDy=0;" edge="1" parent="1" source="oNu87VnfktEAPIrRcmoS-26" target="oNu87VnfktEAPIrRcmoS-20">
          <mxGeometry width="50" height="50" relative="1" as="geometry">
            <mxPoint x="1199.6999999999998" y="250" as="sourcePoint" />
            <mxPoint x="1199.6999999999998" y="200" as="targetPoint" />
          </mxGeometry>
        </mxCell>
        <mxCell id="oNu87VnfktEAPIrRcmoS-28" value="" style="endArrow=none;html=1;rounded=0;exitX=0.5;exitY=1;exitDx=0;exitDy=0;" edge="1" parent="1" source="bZppWB_cgH8agmTEyihN-7">
          <mxGeometry width="50" height="50" relative="1" as="geometry">
            <mxPoint x="1130" y="120" as="sourcePoint" />
            <mxPoint x="1120" y="280" as="targetPoint" />
          </mxGeometry>
        </mxCell>
        <mxCell id="oNu87VnfktEAPIrRcmoS-29" value="" style="endArrow=classic;html=1;rounded=0;entryX=1;entryY=0.5;entryDx=0;entryDy=0;" edge="1" parent="1">
          <mxGeometry width="50" height="50" relative="1" as="geometry">
            <mxPoint x="1120" y="280" as="sourcePoint" />
            <mxPoint x="700" y="279.63" as="targetPoint" />
          </mxGeometry>
        </mxCell>
        <mxCell id="oNu87VnfktEAPIrRcmoS-30" value="" style="endArrow=none;html=1;rounded=0;exitX=0.5;exitY=0;exitDx=0;exitDy=0;" edge="1" parent="1">
          <mxGeometry width="50" height="50" relative="1" as="geometry">
            <mxPoint x="959.88" y="230" as="sourcePoint" />
            <mxPoint x="960.13" y="200" as="targetPoint" />
          </mxGeometry>
        </mxCell>
        <mxCell id="oNu87VnfktEAPIrRcmoS-31" value="" style="endArrow=none;html=1;rounded=0;" edge="1" parent="1">
          <mxGeometry width="50" height="50" relative="1" as="geometry">
            <mxPoint x="800" y="230" as="sourcePoint" />
            <mxPoint x="960" y="230" as="targetPoint" />
          </mxGeometry>
        </mxCell>
        <mxCell id="oNu87VnfktEAPIrRcmoS-32" value="" style="endArrow=classic;html=1;rounded=0;entryX=0.5;entryY=1;entryDx=0;entryDy=0;" edge="1" parent="1" target="bZppWB_cgH8agmTEyihN-11">
          <mxGeometry width="50" height="50" relative="1" as="geometry">
            <mxPoint x="800" y="230" as="sourcePoint" />
            <mxPoint x="210" y="310" as="targetPoint" />
          </mxGeometry>
        </mxCell>
        <mxCell id="oNu87VnfktEAPIrRcmoS-33" value="Выход из учетной записи" style="rounded=0;whiteSpace=wrap;html=1;" vertex="1" parent="1">
          <mxGeometry x="300" y="30" width="120" height="60" as="geometry" />
        </mxCell>
        <mxCell id="oNu87VnfktEAPIrRcmoS-34" value="" style="endArrow=none;html=1;rounded=0;exitX=0.5;exitY=0;exitDx=0;exitDy=0;" edge="1" parent="1">
          <mxGeometry width="50" height="50" relative="1" as="geometry">
            <mxPoint x="359.82" y="120" as="sourcePoint" />
            <mxPoint x="360.07" y="90" as="targetPoint" />
          </mxGeometry>
        </mxCell>
        <mxCell id="oNu87VnfktEAPIrRcmoS-37" value="Выход из учетной записи" style="rounded=0;whiteSpace=wrap;html=1;" vertex="1" parent="1">
          <mxGeometry x="820" y="30" width="120" height="60" as="geometry" />
        </mxCell>
        <mxCell id="oNu87VnfktEAPIrRcmoS-38" value="" style="endArrow=none;html=1;rounded=0;exitX=0.5;exitY=0;exitDx=0;exitDy=0;" edge="1" parent="1">
          <mxGeometry width="50" height="50" relative="1" as="geometry">
            <mxPoint x="879.8199999999999" y="110" as="sourcePoint" />
            <mxPoint x="880" y="90" as="targetPoint" />
          </mxGeometry>
        </mxCell>
        <mxCell id="oNu87VnfktEAPIrRcmoS-39" value="" style="endArrow=none;html=1;rounded=0;exitX=0.5;exitY=0;exitDx=0;exitDy=0;" edge="1" parent="1">
          <mxGeometry width="50" height="50" relative="1" as="geometry">
            <mxPoint x="1039.8799999999999" y="110" as="sourcePoint" />
            <mxPoint x="1040.06" y="90" as="targetPoint" />
          </mxGeometry>
        </mxCell>
      </root>
    </mxGraphModel>
  </diagram>
</mxfile>
